<svg width="145" height="72" viewBox="0 0 145 72" fill="none" xmlns="http://www.w3.org/2000/svg">
<path d="M15.808 33.8001C16 33.7041 16.272 33.6721 16.624 33.7041C17.008 33.7041 17.312 33.6881 17.536 33.6561C17.6 33.6241 17.712 33.5921 17.872 33.5601C18.064 33.4961 18.208 33.4641 18.304 33.4641C18.432 33.4321 18.56 33.4161 18.688 33.4161C18.848 33.3841 18.992 33.3841 19.12 33.4161C19.248 33.4481 19.36 33.5121 19.456 33.6081C19.456 34.8561 19.52 38.7441 19.648 45.2721C19.776 51.7681 19.856 57.0321 19.888 61.0641C19.952 65.0641 19.904 68.2801 19.744 70.7121C19.296 70.9681 18.448 71.0641 17.2 71.0001C15.952 70.9361 15.344 70.5681 15.376 69.8961C15.44 67.0801 15.424 64.5361 15.328 62.2641C15.328 53.6881 15.264 49.2401 15.136 48.9201C15.136 48.9521 14.896 49.8161 14.416 51.5121C13.968 53.2081 13.472 54.9521 12.928 56.7441C12.416 58.5041 12.064 59.5121 11.872 59.7681C11.584 60.1841 11.28 60.4241 10.96 60.4881C10.64 60.5521 10.24 60.5521 9.76 60.4881C9.28 60.3921 8.896 60.3601 8.608 60.3921C8.384 60.0401 7.776 58.4881 6.784 55.7361C5.792 52.9521 5.296 51.5441 5.296 51.5121C5.264 51.4481 5.216 51.2721 5.152 50.9841C5.12 50.6641 5.024 50.4721 4.864 50.4081C4.864 58.9201 4.784 63.8001 4.624 65.0481C4.56 65.4641 4.512 66.3441 4.48 67.6881C4.48 69.0321 4.384 70.0561 4.192 70.7601C3.584 70.9521 2.864 71.0001 2.032 70.9041C1.232 70.8081 0.576 70.6161 0.064 70.3281C-3.72529e-08 69.0481 -0.016 66.5041 0.0160001 62.6961C0.048 58.8881 0.064 56.3441 0.064 55.0641C0.032 52.4401 0.064 48.2321 0.16 42.4401C0.256 36.6481 0.448 33.6241 0.736 33.3681C0.896 33.3361 1.168 33.2721 1.552 33.1761C1.936 33.0481 2.24 32.9681 2.464 32.9361C2.688 32.9041 2.96 32.9201 3.28 32.9841C3.504 33.0801 3.824 33.6401 4.24 34.6641C4.4 35.0801 4.912 36.6321 5.776 39.3201C6.672 42.0081 7.536 44.5681 8.368 47.0001C9.2 49.4001 9.696 50.7121 9.856 50.9361C9.888 50.8721 10 50.5841 10.192 50.0721C10.384 49.5281 10.496 49.1921 10.528 49.0641C10.528 49.0321 11.344 46.5681 12.976 41.6721C14.64 36.7761 15.584 34.1521 15.808 33.8001ZM4.768 50.3601H4.96C4.992 50.2961 4.976 50.2161 4.912 50.1201H4.768V50.3601Z" fill="white"/>
<path d="M31.2449 70.8561C31.2129 70.8881 31.1649 70.9041 31.1009 70.9041C30.8769 70.6481 30.4289 70.3761 29.7569 70.0881C29.1169 69.8001 28.6689 69.5121 28.4129 69.2241C28.1249 69.1601 27.8529 69.0001 27.5969 68.7441C27.3729 68.4561 27.1489 68.0721 26.9249 67.5921C26.7009 67.1121 26.5569 66.8241 26.4929 66.7281C26.1409 66.0881 25.8529 65.3041 25.6289 64.3761C25.4049 63.4481 25.2609 62.7281 25.1969 62.2161C25.1329 61.6721 25.0689 60.7281 25.0049 59.3841C24.9409 58.0401 24.9089 57.2881 24.9089 57.1281C24.7489 55.0481 24.7649 53.2561 24.9569 51.7521C25.1809 50.2161 25.7569 48.7761 26.6849 47.4321C27.4849 46.2481 28.4929 45.3201 29.7089 44.6481C30.9249 43.9441 32.2049 43.6881 33.5489 43.8801C34.5089 44.0721 35.1649 44.2961 35.5169 44.5521C36.0289 45.0321 36.5089 45.5601 36.9569 46.1361C38.5249 48.1521 39.2769 49.5761 39.2129 50.4081C39.1809 50.9521 39.1969 51.7681 39.2609 52.8561C39.3249 53.9121 39.3569 54.6801 39.3569 55.1601C39.3249 56.2161 39.3409 57.8001 39.4049 59.9121C39.5649 63.6881 39.1329 66.3121 38.1089 67.7841C37.3729 68.8721 36.3329 69.7361 34.9889 70.3761C33.6769 71.0161 32.4289 71.1761 31.2449 70.8561ZM28.9409 63.2241C29.2929 65.3041 30.2369 66.4881 31.7729 66.7761C32.7009 66.9681 33.5169 66.7761 34.2209 66.2001C34.9569 65.6241 35.4689 64.8721 35.7569 63.9441C36.3009 62.3121 36.3969 60.3601 36.0449 58.0881C35.9809 57.6721 35.9489 57.0801 35.9489 56.3121C35.9489 55.5121 35.9329 54.9521 35.9009 54.6321L35.6129 51.3681C35.5169 50.4081 35.2289 49.5601 34.7489 48.8241C34.3009 48.0561 33.6449 47.6241 32.7809 47.5281C31.2449 47.3681 30.0769 48.3921 29.2769 50.6001C28.2209 53.5761 28.1089 57.7841 28.9409 63.2241Z" fill="white"/>
<path d="M44.5052 68.5041C43.7692 68.0881 43.2412 67.1281 42.9212 65.6241C42.5052 63.6721 42.2972 62.0561 42.2972 60.7761C42.2332 56.9041 42.4893 53.6401 43.0653 50.9841C43.7373 47.7841 45.2413 45.6561 47.5773 44.6001C48.7293 44.1201 50.0093 44.0401 51.4173 44.3601C52.8253 44.6801 53.9613 45.3041 54.8252 46.2321C55.4972 47.0321 56.0093 48.3441 56.3613 50.1681C56.6173 51.6401 56.6973 53.2881 56.6012 55.1121C56.5052 57.8321 56.4733 59.3681 56.5052 59.7201C56.6652 62.5361 56.7453 64.1201 56.7453 64.4721C56.7132 65.8481 56.3132 67.1601 55.5452 68.4081C55.0332 69.3041 53.8813 70.0401 52.0893 70.6161C50.5853 71.0961 49.2093 71.1121 47.9613 70.6641C46.7132 70.2161 45.6253 69.5761 44.6973 68.7441L44.5052 68.5041ZM46.8573 50.5041C46.3133 51.6241 45.9453 53.5121 45.7533 56.1681C45.5612 58.8241 45.6413 60.9841 45.9933 62.6481C46.2173 63.8001 46.5213 64.7441 46.9053 65.4801C47.3213 66.1841 47.9613 66.7281 48.8252 67.1121C49.7533 67.5281 50.5693 67.4321 51.2733 66.8241C52.0093 66.2161 52.4572 65.4161 52.6172 64.4241C52.7132 63.8801 52.7612 63.2881 52.7612 62.6481C52.7933 62.0081 52.7772 61.2881 52.7132 60.4881C52.6813 59.6881 52.6653 59.0961 52.6653 58.7121C52.6973 57.2721 52.6493 55.1121 52.5213 52.2321C52.5213 52.1681 52.5213 51.9121 52.5213 51.4641C52.5213 50.9841 52.5052 50.6961 52.4733 50.6001C52.4733 50.4721 52.4412 50.2321 52.3773 49.8801C52.3133 49.4961 52.2173 49.2401 52.0893 49.1121C51.9613 48.9841 51.7853 48.8241 51.5613 48.6321C51.3693 48.4401 51.1133 48.3121 50.7933 48.2481C49.0973 47.7681 47.7853 48.5201 46.8573 50.5041Z" fill="white"/>
<path d="M66.2166 45.2721C66.3766 45.2081 66.5686 45.1441 66.7926 45.0801C67.0486 44.9841 67.5126 44.8561 68.1846 44.6961C68.8886 44.5361 69.5446 44.4241 70.1526 44.3601C70.7606 44.2961 71.3846 44.3281 72.0246 44.4561C72.6966 44.5841 73.2246 44.8241 73.6086 45.1761C75.0166 46.5201 75.8966 48.9361 76.2486 52.4241C77.0166 59.9761 77.0486 66.0561 76.3446 70.6641C76.0886 70.6641 75.6726 70.6961 75.0966 70.7601C74.5206 70.8241 74.0726 70.8561 73.7526 70.8561C73.4646 70.8241 73.1766 70.6801 72.8886 70.4241C72.6326 70.1681 72.5206 69.7521 72.5526 69.1761C72.7766 63.5761 72.7606 58.7761 72.5046 54.7761C72.5046 54.6481 72.4886 54.2481 72.4566 53.5761C72.4246 52.9041 72.3766 52.4401 72.3126 52.1841C72.2806 51.8961 72.2166 51.4961 72.1206 50.9841C72.0246 50.4721 71.8646 50.0401 71.6406 49.6881C71.4486 49.3361 71.1926 49.0161 70.8726 48.7281C70.1686 48.3441 69.3846 48.2481 68.5206 48.4401C67.6886 48.6001 67.0486 49.0321 66.6006 49.7361C66.2166 50.3121 65.9606 50.9361 65.8326 51.6081C65.7366 52.2481 65.6886 53.1441 65.6886 54.2961C65.7206 55.4161 65.7366 56.0881 65.7366 56.3121C65.6726 57.5601 65.7206 59.7841 65.8806 62.9841C66.0406 66.1841 66.0086 68.6641 65.7846 70.4241C65.7526 70.8081 65.2086 71.0161 64.1526 71.0481C63.1286 71.1121 62.3926 71.0641 61.9446 70.9041C61.9446 69.0801 61.8966 66.4241 61.8006 62.9361C61.7046 59.4481 61.6406 56.7761 61.6086 54.9201C61.6086 53.0321 61.6886 50.4081 61.8486 47.0481C61.8486 46.8561 61.8326 46.5361 61.8006 46.0881C61.7686 45.6081 61.7686 45.1921 61.8006 44.8401C61.8326 44.4561 61.9286 44.1361 62.0886 43.8801C64.8406 43.3361 66.2166 43.8001 66.2166 45.2721Z" fill="white"/>
<path d="M95.0631 48.9681C95.5111 49.5121 95.8791 50.0721 96.1671 50.6481C96.5831 51.5761 96.7911 53.1921 96.7911 55.4961C96.8551 56.7121 96.8711 58.1521 96.8391 59.8161C96.8391 61.4481 96.7271 62.8721 96.5031 64.0881C95.9591 67.0961 94.4391 68.9681 91.9431 69.7041C91.4311 69.8321 90.6951 69.9921 89.7351 70.1841C88.7751 70.3441 88.0871 70.4721 87.6711 70.5681C86.4551 70.8561 85.6551 71.0001 85.2711 71.0001H82.2951C82.1351 70.8081 82.0071 70.5521 81.9111 70.2321C81.8151 69.8801 81.7671 69.5441 81.7671 69.2241C81.7671 68.9041 81.7671 68.5681 81.7671 68.2161C81.7671 67.8641 81.7671 67.5601 81.7671 67.3041L81.6711 62.4081C81.6711 58.0561 81.6871 54.7921 81.7191 52.6161C81.7191 51.4321 81.7031 49.4641 81.6711 46.7121C81.6711 43.9601 81.6871 41.5601 81.7191 39.5121C81.7511 37.4321 81.8311 35.4481 81.9591 33.5601C82.3751 33.4961 82.9511 33.3841 83.6871 33.2241C84.4551 33.0641 84.9831 32.9521 85.2711 32.8881C86.3591 32.7281 87.6071 32.6961 89.0151 32.7921C90.2951 32.8881 91.5271 33.1281 92.7111 33.5121C93.5751 33.8001 94.4071 34.5681 95.2071 35.8161C96.2951 37.6081 96.6151 39.6881 96.1671 42.0561C95.7191 44.3921 94.7431 46.2481 93.2391 47.6241C93.2711 47.6561 93.3671 47.7361 93.5271 47.8641C93.7191 47.9921 93.9431 48.1681 94.1991 48.3921C94.4871 48.5841 94.7751 48.7761 95.0631 48.9681ZM92.9991 57.3201C92.9991 57.2881 92.9991 57.0961 92.9991 56.7441C92.9991 56.3601 92.9991 56.1201 92.9991 56.0241C92.9991 55.8961 92.9831 55.6561 92.9511 55.3041C92.9511 54.9521 92.9351 54.6961 92.9031 54.5361C92.9031 54.3441 92.8871 54.0881 92.8551 53.7681C92.8231 53.4161 92.7751 53.1601 92.7111 53.0001C92.6791 52.8081 92.6151 52.5841 92.5191 52.3281C92.4551 52.0401 92.3751 51.8161 92.2791 51.6561C92.1831 51.4641 92.0551 51.2881 91.8951 51.1281C91.7671 50.9361 91.6231 50.7761 91.4631 50.6481C89.8631 50.0081 88.0871 49.9281 86.1351 50.4081C86.1351 51.3361 86.1191 52.7121 86.0871 54.5361C86.0551 56.3281 86.0391 57.6561 86.0391 58.5201C86.0391 59.3521 86.0711 60.4561 86.1351 61.8321C86.1991 63.1761 86.3271 64.5041 86.5191 65.8161C86.7431 65.7841 87.2071 65.7361 87.9111 65.6721C88.6471 65.6081 89.1591 65.5601 89.4471 65.5281C89.7351 65.4641 90.0871 65.3521 90.5031 65.1921C90.9511 65.0001 91.2871 64.7761 91.5111 64.5201C91.6071 64.4241 91.7671 64.0241 91.9911 63.3201C92.2151 62.5841 92.4391 61.6401 92.6631 60.4881C92.8871 59.3361 92.9991 58.2801 92.9991 57.3201ZM91.5591 43.3521C92.1671 42.4241 92.3751 41.1601 92.1831 39.5601C92.0231 38.3441 91.3991 37.4481 90.3111 36.8721C89.9911 36.6801 89.6231 36.5521 89.2071 36.4881C88.8231 36.4241 88.5031 36.4081 88.2471 36.4401C87.9911 36.4401 87.6071 36.4721 87.0951 36.5361C86.6151 36.6001 86.2791 36.6481 86.0871 36.6801C86.1191 37.2881 86.1511 38.2001 86.1831 39.4161C86.2151 40.6001 86.2471 41.6561 86.2791 42.5841C86.3111 43.5121 86.3431 44.2961 86.3751 44.9361C86.7591 45.1601 87.4951 45.1761 88.5831 44.9841L88.7751 44.9361C88.9351 44.9041 89.1271 44.8561 89.3511 44.7921C89.6071 44.6961 89.8631 44.5841 90.1191 44.4561C90.4071 44.3281 90.6791 44.1681 90.9351 43.9761C91.2231 43.7841 91.4311 43.5761 91.5591 43.3521ZM88.7271 44.9361L88.5831 44.9841H88.6311C88.6631 44.9521 88.6951 44.9361 88.7271 44.9361Z" fill="white"/>
<path d="M106.199 50.2641C106.167 51.7041 106.151 53.8481 106.151 56.6961C106.151 59.5761 106.167 61.7361 106.199 63.1761C106.199 63.7521 106.231 64.5841 106.295 65.6721C106.295 65.8641 106.279 66.2801 106.247 66.9201C106.215 67.5281 106.215 67.9921 106.247 68.3121C106.247 68.4081 106.295 68.6641 106.391 69.0801C106.519 69.4641 106.583 69.7681 106.583 69.9921C106.615 70.1841 106.567 70.4241 106.439 70.7121C105.991 70.9041 105.175 71.0001 103.991 71.0001C102.839 71.0001 102.199 70.7121 102.071 70.1361C102.007 69.8161 101.975 68.8881 101.975 67.3521C101.975 67.0961 101.959 66.5681 101.927 65.7681C101.895 64.9361 101.895 64.2961 101.927 63.8481C101.991 61.2881 102.023 59.3841 102.023 58.1361C102.023 57.3361 102.023 56.1041 102.023 54.4401C102.055 52.7441 102.071 51.4001 102.071 50.4081C102.071 49.3841 102.039 48.1681 101.975 46.7601C101.943 45.3201 101.847 44.0241 101.687 42.8721C102.519 42.7761 103.335 42.7281 104.135 42.7281C104.263 42.7281 104.487 42.7121 104.807 42.6801C105.159 42.6161 105.463 42.6001 105.719 42.6321C105.975 42.6321 106.199 42.6801 106.391 42.7761L106.199 50.2161V50.2641ZM104.231 40.7601C103.527 40.7601 102.935 40.4561 102.455 39.8481C101.975 39.2401 101.783 38.5841 101.879 37.8801C101.975 37.1441 102.423 36.6481 103.223 36.3921C104.055 36.1041 104.759 36.1681 105.335 36.5841C106.167 37.1921 106.647 37.8321 106.775 38.5041C106.775 38.6001 106.695 38.8081 106.535 39.1281C106.407 39.4481 106.119 39.8001 105.671 40.1841C105.255 40.5681 104.775 40.7601 104.231 40.7601Z" fill="white"/>
<path d="M115.991 43.6881C116.087 43.6561 116.231 43.6081 116.423 43.5441C116.615 43.4801 116.967 43.3841 117.479 43.2561C118.023 43.1281 118.535 43.0321 119.015 42.9681C119.495 42.9041 120.023 42.8881 120.599 42.9201C121.175 42.9521 121.671 43.0641 122.087 43.2561C122.567 43.4801 123.319 44.1041 124.343 45.1281C124.567 45.3521 124.791 45.7201 125.015 46.2321C125.079 46.3921 125.047 46.5521 124.919 46.7121C124.791 46.8401 124.727 46.9361 124.727 47.0001C124.695 47.0961 124.583 47.2081 124.391 47.3361C124.231 47.4321 124.135 47.5121 124.103 47.5761C124.007 47.7041 123.911 47.8001 123.815 47.8641C123.719 47.9281 123.591 48.0081 123.431 48.1041C123.303 48.1681 123.191 48.2481 123.095 48.3441C122.679 48.6961 122.343 48.8721 122.087 48.8721C121.863 48.8401 121.543 48.6481 121.127 48.2961C120.135 47.3681 119.351 47.0001 118.775 47.1921C118.391 47.3201 117.991 47.5761 117.575 47.9601C117.159 48.3441 116.871 48.7281 116.711 49.1121C116.615 49.3361 116.535 49.6081 116.471 49.9281C116.407 50.2161 116.375 50.4721 116.375 50.6961C116.375 50.8881 116.359 51.1761 116.327 51.5601C116.327 51.9121 116.327 52.1521 116.327 52.2801C116.327 52.5681 116.311 52.9841 116.279 53.5281C116.247 54.0401 116.215 54.5041 116.183 54.9201C116.183 55.3361 116.183 55.7361 116.183 56.1201C116.183 56.8881 116.183 58.0881 116.183 59.7201C116.183 61.3521 116.183 63.0321 116.183 64.7601C116.183 66.4881 116.183 67.4001 116.183 67.4961C116.183 67.6881 116.199 67.9921 116.231 68.4081C116.263 68.7921 116.279 69.1601 116.279 69.5121C116.279 69.8321 116.231 70.1201 116.135 70.3761C116.039 70.7921 115.463 71.0001 114.407 71.0001C114.343 71.0001 114.215 71.0001 114.023 71.0001C113.863 71.0001 113.735 71.0001 113.639 71.0001C113.575 71.0001 113.463 71.0001 113.303 71.0001C113.175 71.0001 113.063 70.9841 112.967 70.9521C112.871 70.9201 112.759 70.8881 112.631 70.8561C112.535 70.7921 112.439 70.7281 112.343 70.6641C112.247 70.5681 112.167 70.4561 112.103 70.3281C112.135 68.7281 112.135 65.7521 112.103 61.4001C112.103 57.0161 112.071 54.0081 112.007 52.3761C112.007 52.0241 111.991 51.5441 111.959 50.9361C111.927 50.3281 111.895 49.7681 111.863 49.2561C111.863 48.7441 111.863 48.2641 111.863 47.8161C111.927 45.3841 111.879 43.8321 111.719 43.1601C111.719 42.9361 111.703 42.7601 111.671 42.6321C111.671 42.4721 111.751 42.3441 111.911 42.2481C112.103 42.1201 112.231 42.0401 112.295 42.0081C112.391 41.9441 112.567 41.8961 112.823 41.8641C113.079 41.8321 113.271 41.8161 113.399 41.8161C113.559 41.7841 113.751 41.7681 113.975 41.7681C114.231 41.7681 114.407 41.7681 114.503 41.7681C115.303 41.7681 115.767 41.8641 115.895 42.0561C116.023 42.2161 116.055 42.4881 115.991 42.8721C115.927 43.2241 115.927 43.4961 115.991 43.6881Z" fill="white"/>
<path d="M144.787 70.4241C144.115 70.6161 143.075 70.7761 141.667 70.9041C140.963 71.0001 140.595 70.9041 140.563 70.6161C140.563 70.5841 140.547 70.4081 140.515 70.0881C140.515 69.7681 140.451 69.5441 140.323 69.4161C139.203 70.1521 137.731 70.2961 135.907 69.8481C134.115 69.4321 132.851 68.5681 132.115 67.2561C131.763 66.6161 131.459 65.9281 131.203 65.1921C130.947 64.4241 130.739 63.7361 130.579 63.1281C130.451 62.5201 130.339 61.8321 130.243 61.0641C130.147 60.2961 130.083 59.7201 130.051 59.3361C130.051 58.9201 130.035 58.3761 130.003 57.7041C129.971 57.0321 129.955 56.6481 129.955 56.5521C129.731 52.2321 130.355 48.7601 131.827 46.1361C132.851 44.4401 133.955 43.3681 135.139 42.9201C136.419 42.4401 138.099 42.5361 140.179 43.2081C140.243 41.8321 140.275 39.9121 140.275 37.4481C140.307 34.9841 140.339 33.2881 140.371 32.3601C141.907 32.0401 143.075 31.9761 143.875 32.1681C144.067 32.2001 144.195 32.3441 144.259 32.6001C144.323 32.8561 144.355 33.1121 144.355 33.3681C144.355 33.6241 144.339 33.9281 144.307 34.2801C144.275 34.6001 144.259 34.8081 144.259 34.9041C144.323 35.8641 144.355 36.9361 144.355 38.1201C144.387 39.3041 144.387 40.3761 144.355 41.3361C144.355 42.2961 144.371 43.3681 144.403 44.5521C144.435 45.7361 144.499 48.8561 144.595 53.9121C144.691 58.9681 144.755 62.6161 144.787 64.8561C144.819 67.0641 144.819 68.9201 144.787 70.4241ZM138.835 47.0481C138.227 46.8241 137.587 46.7441 136.915 46.8081C136.243 46.8721 135.667 47.0641 135.187 47.3841C134.355 48.3121 133.875 49.8961 133.747 52.1361C133.555 54.8241 133.475 56.8561 133.507 58.2321C133.571 60.4081 133.795 62.3441 134.179 64.0401C134.467 65.2881 135.491 65.8801 137.251 65.8161C138.019 65.7841 138.755 65.6401 139.459 65.3841C140.163 65.0961 140.499 64.6321 140.467 63.9921C140.435 63.3841 140.451 62.4241 140.515 61.1121C140.611 59.7681 140.627 58.7601 140.563 58.0881C140.435 56.4241 140.435 54.3281 140.563 51.8001C140.627 50.3281 140.659 49.2241 140.659 48.4881C140.403 47.9761 139.795 47.4961 138.835 47.0481Z" fill="white"/>
<path fill-rule="evenodd" clip-rule="evenodd" d="M102.255 4.2613L102.289 4.32684L107.568 6.71214L101.222 7.87706L100.795 8.65047C100.41 9.34826 100.167 10.1158 100.082 10.9084L99.7737 13.7717C99.3415 17.7848 97.0698 21.3694 93.6253 23.4736L86.2842 27.958L89.766 31.3973L91.9 30.8981L93.5286 32.2294L92.4616 32.3958L95.4941 33.7271L95.3256 36.3898L93.8655 34.7256L91.9 34.2264L91.5631 37L90.3276 35.3358L88.9237 34.2264L87.7443 33.8936L84.1503 33.7271L81.6232 34.8921L83.2517 32.2294L86.565 32.0075L83.5325 28.7901L71.6833 26.5157L64.5512 29.2339L65.0567 27.5142L61.1818 28.2354L51.9158 32.4513L54.3867 29.2339H50.568L62.1917 23.7746C64.3607 22.7559 66.4504 21.5762 68.4432 20.2453L72.6851 17.4126C73.1758 17.0849 73.6232 16.6964 74.0165 16.2564L75.9352 14.1099C77.3635 12.5121 78.9769 11.09 80.7414 9.87368L85.0987 6.87009C85.6245 6.50763 86.0983 6.07491 86.5067 5.58399L87.9216 3.88365C88.7951 2.83376 89.9568 2.06237 91.2633 1.66452L94.0547 0.814513C95.7712 0.291818 97.6233 0.452465 99.2242 1.26291C100.523 1.9206 101.583 2.96931 102.255 4.2613ZM96.7296 5.5C97.2819 5.5 97.7296 5.05228 97.7296 4.5C97.7296 3.94772 97.2819 3.5 96.7296 3.5C96.1773 3.5 95.7296 3.94772 95.7296 4.5C95.7296 5.05228 96.1773 5.5 96.7296 5.5Z" fill="white"/>
</svg>
