<svg width="17" height="20" viewBox="0 0 17 20" fill="none" xmlns="http://www.w3.org/2000/svg">
<path d="M15.8678 7.93575L3.49107 0.335589C3.14006 0.119543 2.74022 0.00379102 2.33216 9.15468e-05C1.9241 -0.00360792 1.52237 0.104877 1.16778 0.314525C0.813183 0.524174 0.518359 0.827516 0.313254 1.19374C0.108149 1.55996 7.11645e-05 1.97601 0 2.39963V17.5999C0 18.2365 0.243582 18.8469 0.67716 19.297C1.11074 19.7471 1.6988 20 2.31197 20C2.72693 19.9999 3.13421 19.8838 3.49107 19.664L15.8678 12.0638C16.2128 11.8513 16.4986 11.5493 16.6971 11.1874C16.8956 10.8255 17 10.4162 17 9.99979C17 9.58335 16.8956 9.17407 16.6971 8.81218C16.4986 8.4503 16.2128 8.14826 15.8678 7.93575Z" fill="#3B2067"/>
</svg>
