<svg width="58" height="37" viewBox="0 0 58 37" fill="none" xmlns="http://www.w3.org/2000/svg">
<path fill-rule="evenodd" clip-rule="evenodd" d="M52.2551 4.2613L52.2892 4.32684L57.568 6.71214L51.2222 7.87706L50.7951 8.65047C50.4098 9.34826 50.1674 10.1158 50.082 10.9084L49.7737 13.7717C49.3415 17.7848 47.0698 21.3694 43.6253 23.4736L36.2842 27.958L39.766 31.3973L41.9 30.8981L43.5286 32.2294L42.4616 32.3958L45.4941 33.7271L45.3256 36.3898L43.8655 34.7256L41.9 34.2264L41.5631 37L40.3276 35.3358L38.9237 34.2264L37.7443 33.8936L34.1503 33.7271L31.6232 34.8921L33.2517 32.2294L36.565 32.0075L33.5325 28.7901L21.6833 26.5157L14.5512 29.2339L15.0567 27.5142L11.1818 28.2354L1.91578 32.4513L4.38671 29.2339H0.567993L12.1917 23.7746C14.3607 22.7559 16.4504 21.5762 18.4432 20.2453L22.6851 17.4126C23.1758 17.0849 23.6232 16.6964 24.0165 16.2564L25.9352 14.1099C27.3635 12.5121 28.9769 11.09 30.7414 9.87368L35.0987 6.87009C35.6245 6.50763 36.0983 6.07491 36.5067 5.58399L37.9216 3.88365C38.7951 2.83376 39.9568 2.06237 41.2633 1.66452L44.0547 0.814513C45.7712 0.291818 47.6233 0.452465 49.2242 1.26291C50.5234 1.9206 51.5835 2.96931 52.2551 4.2613ZM46.7296 5.5C47.2819 5.5 47.7296 5.05228 47.7296 4.5C47.7296 3.94772 47.2819 3.5 46.7296 3.5C46.1773 3.5 45.7296 3.94772 45.7296 4.5C45.7296 5.05228 46.1773 5.5 46.7296 5.5Z" fill="white"/>
</svg>
