<svg width="222" height="147" viewBox="0 0 222 147" fill="none" xmlns="http://www.w3.org/2000/svg">
<path d="M188.68 17.4082C188.703 17.9523 188.888 18.4771 189.209 18.9161C189.53 19.3552 189.973 19.6888 190.483 19.8748C190.993 20.0609 191.546 20.0909 192.073 19.9612C192.6 19.8314 193.077 19.5477 193.443 19.146C193.809 18.7442 194.049 18.2424 194.131 17.7041C194.213 17.1657 194.134 16.615 193.905 16.1215C193.675 15.628 193.305 15.214 192.841 14.9317C192.377 14.6495 191.84 14.5117 191.298 14.5358C190.572 14.5682 189.887 14.8889 189.396 15.4276C188.905 15.9662 188.647 16.6787 188.68 17.4082Z" fill="url(#paint0_linear)"/>
<path d="M196.654 7.57452L200.695 14.3479L170.455 11.4577L196.654 7.57452Z" fill="url(#paint1_linear)"/>
<path d="M181.135 0L196.654 7.57452L170.455 11.4577L181.135 0Z" fill="url(#paint2_linear)"/>
<path d="M177.505 0.405518L167.436 10.249L155.471 7.97213L177.505 0.405518Z" fill="url(#paint3_linear)"/>
<path d="M198.351 26.6167L194.039 33.5977L165.848 28.2586L170.266 12.6862L198.351 26.6167Z" fill="url(#paint4_linear)"/>
<path d="M155.471 7.97213L143.763 23.6236L164.094 27.1152L167.436 10.249L155.471 7.97213Z" fill="url(#paint5_linear)"/>
<path d="M222 22.595L193.261 21.4279L202.477 15.4062L222 22.595Z" fill="url(#paint6_linear)"/>
<path d="M199.752 25.2893L193.261 21.4279L222 22.595L199.752 25.2893Z" fill="url(#paint7_linear)"/>
<path d="M166.959 31.4514L139.249 26.0212L109.414 46.9229L166.959 31.4514Z" fill="url(#paint8_linear)"/>
<path d="M166.959 31.4514L53.5926 112.562L109.414 46.9229L166.959 31.4514Z" fill="url(#paint9_linear)"/>
<path d="M171.399 32.8935L156.527 70.5287L52.0103 115.317L171.399 32.8935Z" fill="url(#paint10_linear)"/>
<path d="M83.9259 72.6533L57.6576 105.547L27.8387 109.479L83.9259 72.6533Z" fill="url(#paint11_linear)"/>
<path d="M51.0822 94.2177L0 115.671L27.8387 109.479L51.0822 94.2177Z" fill="url(#paint12_linear)"/>
<path d="M36.7097 110.138L17.1607 114.178L3.31629 126.13L36.7097 110.138Z" fill="url(#paint13_linear)"/>
<path d="M160.439 93.1732L83.4608 103.286L156.833 74.2497L160.439 93.1732Z" fill="url(#paint14_linear)"/>
<path d="M130.163 112.338L160.545 95.6123L96.858 103.238L130.163 112.338Z" fill="url(#paint15_linear)"/>
<path d="M194.092 34.8163L188.973 76.7779L161.759 95.5589L194.092 34.8163Z" fill="url(#paint16_linear)"/>
<path d="M191.468 34.933L174.279 32.033L158.388 74.1805L161.568 91.2128L191.468 34.933Z" fill="url(#paint17_linear)"/>
<path d="M132.033 113.386L135.593 111.608L151.59 127.73L142.784 127.752L132.033 113.386Z" fill="url(#paint18_linear)"/>
<path d="M151.662 129.384L159.865 125.663L165.391 128.777L151.662 129.384Z" fill="url(#paint19_linear)"/>
<path d="M154.173 131.374L163.621 130.955L174.498 136.322L175.269 143.803L171.824 138.407L161.227 136.587L154.173 131.374Z" fill="url(#paint20_linear)"/>
<path d="M150.565 129.434L160.196 138.179L160.62 147L157.144 140.735L150.372 135.742L146.035 134.63L142.177 129.805L150.565 129.434Z" fill="url(#paint21_linear)"/>
<path d="M140.833 129.865L127.497 130.456L122.864 138.29L129.168 133.036L131.394 134.098L143.107 135.071L140.833 129.865Z" fill="url(#paint22_linear)"/>
<defs>
<linearGradient id="paint0_linear" x1="105" y1="27.5" x2="169" y2="112.5" gradientUnits="userSpaceOnUse">
<stop stop-color="#DB0000"/>
<stop offset="1" stop-color="#FF9696"/>
</linearGradient>
<linearGradient id="paint1_linear" x1="105" y1="27.5" x2="169" y2="112.5" gradientUnits="userSpaceOnUse">
<stop stop-color="#DB0000"/>
<stop offset="1" stop-color="#FF9696"/>
</linearGradient>
<linearGradient id="paint2_linear" x1="105" y1="27.5" x2="169" y2="112.5" gradientUnits="userSpaceOnUse">
<stop stop-color="#DB0000"/>
<stop offset="1" stop-color="#FF9696"/>
</linearGradient>
<linearGradient id="paint3_linear" x1="105" y1="27.5" x2="169" y2="112.5" gradientUnits="userSpaceOnUse">
<stop stop-color="#DB0000"/>
<stop offset="1" stop-color="#FF9696"/>
</linearGradient>
<linearGradient id="paint4_linear" x1="105" y1="27.5" x2="169" y2="112.5" gradientUnits="userSpaceOnUse">
<stop stop-color="#DB0000"/>
<stop offset="1" stop-color="#FF9696"/>
</linearGradient>
<linearGradient id="paint5_linear" x1="105" y1="27.5" x2="169" y2="112.5" gradientUnits="userSpaceOnUse">
<stop stop-color="#DB0000"/>
<stop offset="1" stop-color="#FF9696"/>
</linearGradient>
<linearGradient id="paint6_linear" x1="105" y1="27.5" x2="169" y2="112.5" gradientUnits="userSpaceOnUse">
<stop stop-color="#DB0000"/>
<stop offset="1" stop-color="#FF9696"/>
</linearGradient>
<linearGradient id="paint7_linear" x1="105" y1="27.5" x2="169" y2="112.5" gradientUnits="userSpaceOnUse">
<stop stop-color="#DB0000"/>
<stop offset="1" stop-color="#FF9696"/>
</linearGradient>
<linearGradient id="paint8_linear" x1="105" y1="27.5" x2="169" y2="112.5" gradientUnits="userSpaceOnUse">
<stop stop-color="#DB0000"/>
<stop offset="1" stop-color="#FF9696"/>
</linearGradient>
<linearGradient id="paint9_linear" x1="105" y1="27.5" x2="169" y2="112.5" gradientUnits="userSpaceOnUse">
<stop stop-color="#DB0000"/>
<stop offset="1" stop-color="#FF9696"/>
</linearGradient>
<linearGradient id="paint10_linear" x1="105" y1="27.5" x2="169" y2="112.5" gradientUnits="userSpaceOnUse">
<stop stop-color="#DB0000"/>
<stop offset="1" stop-color="#FF9696"/>
</linearGradient>
<linearGradient id="paint11_linear" x1="105" y1="27.5" x2="169" y2="112.5" gradientUnits="userSpaceOnUse">
<stop stop-color="#DB0000"/>
<stop offset="1" stop-color="#FF9696"/>
</linearGradient>
<linearGradient id="paint12_linear" x1="105" y1="27.5" x2="169" y2="112.5" gradientUnits="userSpaceOnUse">
<stop stop-color="#DB0000"/>
<stop offset="1" stop-color="#FF9696"/>
</linearGradient>
<linearGradient id="paint13_linear" x1="105" y1="27.5" x2="169" y2="112.5" gradientUnits="userSpaceOnUse">
<stop stop-color="#DB0000"/>
<stop offset="1" stop-color="#FF9696"/>
</linearGradient>
<linearGradient id="paint14_linear" x1="105" y1="27.5" x2="169" y2="112.5" gradientUnits="userSpaceOnUse">
<stop stop-color="#DB0000"/>
<stop offset="1" stop-color="#FF9696"/>
</linearGradient>
<linearGradient id="paint15_linear" x1="105" y1="27.5" x2="169" y2="112.5" gradientUnits="userSpaceOnUse">
<stop stop-color="#DB0000"/>
<stop offset="1" stop-color="#FF9696"/>
</linearGradient>
<linearGradient id="paint16_linear" x1="105" y1="27.5" x2="169" y2="112.5" gradientUnits="userSpaceOnUse">
<stop stop-color="#DB0000"/>
<stop offset="1" stop-color="#FF9696"/>
</linearGradient>
<linearGradient id="paint17_linear" x1="105" y1="27.5" x2="169" y2="112.5" gradientUnits="userSpaceOnUse">
<stop stop-color="#DB0000"/>
<stop offset="1" stop-color="#FF9696"/>
</linearGradient>
<linearGradient id="paint18_linear" x1="105" y1="27.5" x2="169" y2="112.5" gradientUnits="userSpaceOnUse">
<stop stop-color="#DB0000"/>
<stop offset="1" stop-color="#FF9696"/>
</linearGradient>
<linearGradient id="paint19_linear" x1="105" y1="27.5" x2="169" y2="112.5" gradientUnits="userSpaceOnUse">
<stop stop-color="#DB0000"/>
<stop offset="1" stop-color="#FF9696"/>
</linearGradient>
<linearGradient id="paint20_linear" x1="105" y1="27.5" x2="169" y2="112.5" gradientUnits="userSpaceOnUse">
<stop stop-color="#DB0000"/>
<stop offset="1" stop-color="#FF9696"/>
</linearGradient>
<linearGradient id="paint21_linear" x1="105" y1="27.5" x2="169" y2="112.5" gradientUnits="userSpaceOnUse">
<stop stop-color="#DB0000"/>
<stop offset="1" stop-color="#FF9696"/>
</linearGradient>
<linearGradient id="paint22_linear" x1="105" y1="27.5" x2="169" y2="112.5" gradientUnits="userSpaceOnUse">
<stop stop-color="#DB0000"/>
<stop offset="1" stop-color="#FF9696"/>
</linearGradient>
</defs>
</svg>
