<svg width="191" height="180" viewBox="0 0 191 180" fill="none" xmlns="http://www.w3.org/2000/svg">
<path d="M126.223 71.405L61.0756 180L102.163 81.8182L126.223 71.405Z" fill="url(#paint0_linear)"/>
<path d="M96.6105 75.4959L0 86.281L109.936 58.7603L96.6105 75.4959Z" fill="url(#paint1_linear)"/>
<path d="M155.835 14.5041L92.5388 84.4215L178.415 42.3967L155.835 14.5041Z" fill="url(#paint2_linear)"/>
<path d="M178.415 46.1157L139.548 65.8264H185.448L178.415 46.1157Z" fill="url(#paint3_linear)"/>
<path d="M185.448 69.9174H139.548L148.062 86.281L145.841 143.926L185.448 69.9174Z" fill="url(#paint4_linear)"/>
<path d="M134.736 0L54.4128 22.314L105.864 30.124L122.891 46.1157L134.736 0Z" fill="url(#paint5_linear)"/>
<path d="M126.223 42.3967L139.548 0L153.244 13.0165L126.223 42.3967Z" fill="url(#paint6_linear)"/>
<path d="M180.266 38.6777L159.907 14.5041L180.266 7.43802L189.519 19.7107L180.266 38.6777Z" fill="url(#paint7_linear)"/>
<path d="M190.63 8.55372L183.227 7.43802L191 16.3636L190.63 8.55372Z" fill="url(#paint8_linear)"/>
<defs>
<linearGradient id="paint0_linear" x1="90.3378" y1="33.6735" x2="171.687" y2="109.587" gradientUnits="userSpaceOnUse">
<stop stop-color="#58D7FF"/>
<stop offset="1" stop-color="#0066FF"/>
</linearGradient>
<linearGradient id="paint1_linear" x1="90.3378" y1="33.6735" x2="171.687" y2="109.587" gradientUnits="userSpaceOnUse">
<stop stop-color="#58D7FF"/>
<stop offset="1" stop-color="#0066FF"/>
</linearGradient>
<linearGradient id="paint2_linear" x1="90.3378" y1="33.6735" x2="171.687" y2="109.587" gradientUnits="userSpaceOnUse">
<stop stop-color="#58D7FF"/>
<stop offset="1" stop-color="#0066FF"/>
</linearGradient>
<linearGradient id="paint3_linear" x1="90.3378" y1="33.6735" x2="171.687" y2="109.587" gradientUnits="userSpaceOnUse">
<stop stop-color="#58D7FF"/>
<stop offset="1" stop-color="#0066FF"/>
</linearGradient>
<linearGradient id="paint4_linear" x1="90.3378" y1="33.6735" x2="171.687" y2="109.587" gradientUnits="userSpaceOnUse">
<stop stop-color="#58D7FF"/>
<stop offset="1" stop-color="#0066FF"/>
</linearGradient>
<linearGradient id="paint5_linear" x1="90.3378" y1="33.6735" x2="171.687" y2="109.587" gradientUnits="userSpaceOnUse">
<stop stop-color="#58D7FF"/>
<stop offset="1" stop-color="#0066FF"/>
</linearGradient>
<linearGradient id="paint6_linear" x1="90.3378" y1="33.6735" x2="171.687" y2="109.587" gradientUnits="userSpaceOnUse">
<stop stop-color="#58D7FF"/>
<stop offset="1" stop-color="#0066FF"/>
</linearGradient>
<linearGradient id="paint7_linear" x1="90.3378" y1="33.6735" x2="171.687" y2="109.587" gradientUnits="userSpaceOnUse">
<stop stop-color="#58D7FF"/>
<stop offset="1" stop-color="#0066FF"/>
</linearGradient>
<linearGradient id="paint8_linear" x1="90.3378" y1="33.6735" x2="171.687" y2="109.587" gradientUnits="userSpaceOnUse">
<stop stop-color="#58D7FF"/>
<stop offset="1" stop-color="#0066FF"/>
</linearGradient>
</defs>
</svg>
