<svg width="24" height="24" viewBox="0 0 24 24" fill="none" xmlns="http://www.w3.org/2000/svg">
<path fill-rule="evenodd" clip-rule="evenodd" d="M12 0C8.74 0 8.333 0.015 7.053 0.072C5.775 0.132 4.905 0.333 4.14 0.63C3.351 0.936 2.681 1.347 2.014 2.014C1.347 2.681 0.935 3.35 0.63 4.14C0.333 4.905 0.131 5.775 0.072 7.053C0.012 8.333 0 8.74 0 12C0 15.26 0.015 15.667 0.072 16.947C0.132 18.224 0.333 19.095 0.63 19.86C0.936 20.648 1.347 21.319 2.014 21.986C2.681 22.652 3.35 23.065 4.14 23.37C4.906 23.666 5.776 23.869 7.053 23.928C8.333 23.988 8.74 24 12 24C15.26 24 15.667 23.985 16.947 23.928C18.224 23.868 19.095 23.666 19.86 23.37C20.648 23.064 21.319 22.652 21.986 21.986C22.652 21.319 23.065 20.651 23.37 19.86C23.666 19.095 23.869 18.224 23.928 16.947C23.988 15.667 24 15.26 24 12C24 8.74 23.985 8.333 23.928 7.053C23.868 5.776 23.666 4.904 23.37 4.14C23.064 3.351 22.652 2.681 21.986 2.014C21.319 1.347 20.651 0.935 19.86 0.63C19.095 0.333 18.224 0.131 16.947 0.072C15.667 0.012 15.26 0 12 0ZM19.846 5.595C19.846 6.39 19.2 7.035 18.406 7.035C17.611 7.035 16.966 6.389 16.966 5.595C16.966 4.801 17.612 4.156 18.406 4.156C19.199 4.155 19.846 4.801 19.846 5.595ZM5.838 12C5.838 8.598 8.595 5.838 12 5.838C15.402 5.838 18.162 8.595 18.162 12C18.162 15.402 15.405 18.162 12 18.162C8.598 18.162 5.838 15.405 5.838 12Z" fill="#3B2067"/>
<path d="M12 16C9.79 16 8 14.21 8 12C8 9.79 9.79 8 12 8C14.21 8 16 9.79 16 12C16 14.21 14.21 16 12 16Z" fill="#3B2067"/>
</svg>
